<?xml version="1.0" standalone="no"?>
<!DOCTYPE svg PUBLIC "-//W3C//DTD SVG 20010904//EN"
 "http://www.w3.org/TR/2001/REC-SVG-20010904/DTD/svg10.dtd">
<svg version="1.0" xmlns="http://www.w3.org/2000/svg"
 width="420.000000pt" height="420.000000pt" viewBox="0 0 420.000000 420.000000"
 preserveAspectRatio="xMidYMid meet">

<g transform="translate(0.000000,420.000000) scale(0.100000,-0.100000)"
fill="#fff" stroke="none">
<path d="M380 4184 c-184 -49 -331 -201 -369 -382 -8 -37 -11 -538 -11 -1705
0 -1806 -3 -1702 57 -1827 34 -70 141 -177 213 -212 124 -61 19 -58 1830 -58
1811 0 1706 -3 1830 58 70 34 177 141 212 212 61 123 58 19 58 1830 0 1811 3
1707 -58 1830 -36 73 -142 180 -212 213 -126 60 -20 57 -1835 56 -1422 0
-1668 -2 -1715 -15z m3452 -217 c64 -32 111 -80 142 -146 l21 -46 0 -1675 0
-1675 -21 -46 c-31 -66 -78 -114 -142 -146 l-57 -28 -1675 0 -1675 0 -57 28
c-64 32 -111 80 -142 146 l-21 46 -3 1645 c-2 1169 0 1660 8 1696 22 101 93
181 193 216 49 17 139 17 1712 15 l1660 -2 57 -28z"/>
<path d="M902 3489 c-115 -22 -222 -101 -269 -198 -36 -73 -39 -191 -7 -262
56 -122 183 -204 346 -224 159 -18 336 80 401 223 32 71 29 179 -6 253 -77
159 -272 246 -465 208z m189 -200 c106 -36 142 -164 68 -238 -16 -17 -49 -36
-72 -42 -58 -16 -168 -6 -209 18 -114 67 -99 213 28 258 48 17 139 19 185 4z"/>
<path d="M651 2686 c-52 -29 -50 10 -51 -1034 0 -1057 -2 -1014 55 -1040 37
-17 653 -17 690 0 57 26 55 -17 55 1037 0 731 -3 977 -12 996 -24 53 -39 55
-390 55 -249 -1 -328 -4 -347 -14z m549 -1036 l0 -850 -200 0 -200 0 0 850 0
850 200 0 200 0 0 -850z"/>
<path d="M1551 2686 c-52 -29 -50 10 -51 -1034 0 -1057 -2 -1014 55 -1040 18
-9 119 -12 346 -12 338 0 364 3 385 47 5 10 11 275 14 588 l5 570 33 68 c46
92 88 120 188 125 41 3 89 -1 109 -8 53 -18 109 -72 136 -133 l24 -52 5 -570
c3 -314 9 -578 14 -588 21 -44 47 -47 386 -47 348 0 364 2 388 55 15 33 16
1171 2 1285 -63 486 -399 783 -855 757 -127 -8 -236 -37 -347 -92 l-88 -43 0
28 c0 42 -20 80 -51 96 -39 20 -662 20 -698 0z m549 -281 c0 -90 1 -96 28
-126 23 -26 36 -32 70 -32 38 0 48 7 116 71 81 76 192 138 296 163 81 20 281
18 355 -5 161 -48 276 -146 349 -298 80 -167 79 -158 83 -805 l4 -573 -200 0
-201 0 0 483 c0 520 -4 563 -54 673 -33 71 -122 164 -189 197 -80 39 -137 50
-240 45 -77 -3 -103 -9 -160 -35 -83 -40 -155 -110 -196 -196 -57 -115 -61
-153 -61 -684 l0 -483 -200 0 -200 0 0 850 0 850 200 0 200 0 0 -95z"/>
</g>
</svg>
