<svg version="1.0" xmlns="http://www.w3.org/2000/svg"
 viewBox="0 0 2000 2000"
 preserveAspectRatio="xMidYMid meet">
    <g transform="translate(0,2000) scale(0.1,-0.1)">
    <!-- L -->
    <path className="test"
    d="M4750 14240 
            l0 -1020 725 0 725 0 0 175 0 175 -520 0 -520 0 0 845 0 845 -205 0 -205 0 0 -1020z"
        fill="#fff"/>
    <!-- A -->
    <path d="M7075 15248 
            c-27 -67 -778 -1994 -782 -2010 -5 -17 10 -18 214 -18
            l220 0 84 233 84 232 414 0 413 0 45 -115 
            c24 -63 64 -168 89 -232 l46 -118 224 0 
            c123 0 224 3 224 6 0 3 -183 461 -406 1017 -223 557 -408 1018 -411 1025 -4 9 -58 12 -225 12 l-219 0 -14 -32z m370 -828 
            c74 -201 135 -368 135 -372 0 -4 -124 -8 -275 -8 -151 0 -275 2 -275 5 0 4 228 634 262 724 5 13 11 22 13 19 2 -2 65 -168 140 -368
            z"
        fill="#fff"/>
    <!-- W -->
    <path d="M8220 15272 
            c0 -4 110 -467 244 -1028 
            l243 -1019 226 -3 226 -2 9 32
            c5 18 96 362 203 765 106 403 197 729 200 725 3 -4 92 -331 198 -727 105 -396 196 -737 202 -757 
            l10 -38 219 0 
            c200 0 219 2 224 18 3 9 113 465 246 1012
            133 547 244 1003 246 1013 5 16 -9 17 -205 17 -116 0 -211 -2 -211 -4 0 -10 -311 -1421 -314 -1424 -2 -1 -84 319 -182 713 
            l-179 715 -249 -2 -248 -3 -186 -697 
            c-102 -384 -188 -696 -190 -693 -3 3 -73 316 -157 697 
            l-152 693 -211 3
            c-117 1 -212 -1 -212 -6
            z"
        fill="#fff"/>
    <!-- Y -->
    <path d="M11007 15268 
            c12 -15 669 -1053 720 -1137 l33 -55 0 -428 0 -428 205 0 205 0 0 434 0 434 375 591 
            c206 326 375 594 375 596 0 3 -107 5 -237 5
            l-238 -1 -235 -404 
            c-129 -222 -238 -401 -242 -397 -4 4 -112 185 -242 402
            l-234 395 -248 3 
            c-198 2 -245 0 -237 -10
            z"
        fill="#fff"/>
    <!-- E -->
    <path d="M13060 14250 l0 -1030 780 0 780 0 0 175 0 175 -575 0 -575 0 0 280 0 280 520 0 520 0 -2 173 -3 172 -517 3 -518 2 0 225 0 225 555 0 555 0 0 175 0 175 -760 0 -760 0 0 -1030z"
        fill="#fff"/>
    <!-- R -->
    <path d="M14980 14250
            l0 -1030 205 0 205 0 0 431 0 431 128 -5 
            c246 -10 243 -7 609 -549 l207 -308 249 0 249 0 -18 28 
            c-10 15 -87 137 -171 271 -84 134 -179 280 -210 323 -66 92 -190 213 -257 253 -26 15 -45 29 -43 31 2 2 39 13 83 24 286 72 443 268 444 552 0 114 -14 176 -60 273 -65 136 -181 232 -325 269 -118 30 -256 36 -775 36 
            l-520 0 0 -1030z m1086 665 
            c106 -31 164 -113 164 -229 0 -94 -17 -143 -66 -193 -70 -69 -100 -75 -461 -80 
            l-313 -5 0 261 0 261 313 0 
            c247 0 324 -3 363 -15
            z"
        fill="#fff"/>
    <!-- U -->
    <path d="M1900 17385 
            l-935 -935 468 0 467 0 0 -4682 
            c0 -4464 4 -5215 30 -5648 37 -618 99 -1085 186 -1388 113 -398 349 -789 668 -1108 237 -237 477 -404 816 -568 180 -87 304 -134 476 -181 428 -117 965 -175 1629 -175 893 0 1491 113 2037 386 323 161 538 315 764 545 188 193 322 383 439 624 195 400 284 802 335 1515 32 456 33 556 37 3458 
            l4 2932 -936 0 -935 0 0 -2512 
            c-1 -2440 -8 -3337 -30 -3658 -41 -594 -90 -796 -255 -1045 -144 -218 -366 -398 -612 -497 -411 -165 -1071 -192 -1568 -63 -568 147 -984 566 -1120 1126 -26 107 -48 304 -67 589 -8 127 -12 1578 -15 5263 
            l-4 5087 468 0 468 0 -935 935
            c-514 514 -937 935 -940 935 -3 0 -426 -421 -940 -935
            z"
        fill="#881103"/>
    <!-- P -->
    <path d="M11300 7510 
            l0 -4650 940 0 940 0 2 1753 3 1752 1010 6 
            c556 3 1044 9 1085 13 41 3 149 11 240 17 328 20 658 61 858 105 350 78 785 293 1090 539 258 208 495 508 665 842 150 296 235 598 279 988 8 76 13 237 13 440 -1 271 -4 345 -23 482 -92 679 -314 1147 -756 1588 -226 226 -399 350 -660 476 -300 144 -541 204 -966 243 -528 48 -926 56 -2932 56 
            l-1788 0 0 -4650
            z
            m3690 3061
            c531 -34 765 -100 1015 -285 258 -191 415 -445 470 -762 24 -131 24 -365 1 -494 -69 -388 -303 -702 -656 -880 -126 -63 -227 -96 -385 -125 -326 -60 -638 -75 -1537 -75 
            l-718 0 0 1321 0 1322 823 -6 
            c452 -3 896 -11 987 -16
            z"
        fill="#881103"/>
    </g>
</svg>
