<?xml version="1.0" standalone="no"?>
<!DOCTYPE svg PUBLIC "-//W3C//DTD SVG 20010904//EN"
 "http://www.w3.org/TR/2001/REC-SVG-20010904/DTD/svg10.dtd">
<svg version="1.0" xmlns="http://www.w3.org/2000/svg"
 width="840.000000pt" height="535.000000pt" viewBox="0 0 840.000000 535.000000"
 preserveAspectRatio="xMidYMid meet">

<g transform="translate(0.000000,535.000000) scale(0.100000,-0.100000)"
fill="#fff" stroke="none">
<path d="M1460 4909 c-762 -6 -721 -2 -864 -77 -75 -39 -209 -158 -258 -230
-17 -25 -46 -82 -63 -127 l-32 -81 -7 -1500 c-7 -1590 -1 -2035 29 -2134 33
-107 85 -190 175 -280 97 -98 194 -155 323 -190 l77 -21 3377 4 c3137 3 3383
5 3442 20 174 47 347 184 428 342 83 160 76 7 80 1775 3 895 0 1663 -5 1780
-9 184 -12 212 -36 274 -75 198 -216 334 -426 415 l-75 29 -2740 3 c-1507 2
-3048 1 -3425 -2z m5540 -218 l605 -6 70 -34 c125 -61 247 -212 261 -323 l5
-43 -608 -287 c-334 -158 -1119 -529 -1743 -826 -1204 -571 -1277 -605 -1354
-622 -88 -19 -70 -27 -1321 570 -429 204 -1149 548 -1600 762 -451 215 -826
397 -834 404 -12 11 -12 22 -2 68 25 112 134 237 260 299 l66 32 465 5 c680 8
5023 9 5730 1z m-6235 -789 c127 -60 572 -272 990 -472 418 -200 852 -407 965
-460 113 -54 401 -191 640 -305 239 -114 478 -226 530 -250 211 -95 316 -107
471 -55 109 36 307 129 2579 1210 869 413 948 450 981 457 l29 6 -2 -1590 -3
-1590 -42 -85 c-52 -103 -126 -181 -219 -229 -59 -29 -77 -33 -191 -41 -69 -5
-1597 -7 -3397 -6 l-3271 3 -56 23 c-125 50 -231 156 -281 280 l-23 57 -3
1580 c-1 868 0 1585 3 1592 6 16 -4 20 300 -125z"/>
</g>
</svg>
